HIERARCHY
ROOT SpineBase
{
  OFFSET 0.000000 0.000000 0.000000
  CHANNELS 6 Xposition Yposition Zposition Zrotation Xrotation Yrotation
  JOINT SpineMid
  {
    OFFSET 0.000000 35.722894 0.000000
    CHANNELS 3 Zrotation Xrotation Yrotation
    JOINT SpineShoulder
    {
      OFFSET 0.138001 26.415943 -0.914718
      CHANNELS 3 Zrotation Xrotation Yrotation
      JOINT Neck
      {
        OFFSET 0.075648 8.709189 -0.670054
        CHANNELS 3 Zrotation Xrotation Yrotation
        JOINT Head
        {
          OFFSET -7.120044 10.714084 4.198965
          CHANNELS 3 Zrotation Xrotation Yrotation
          End Site
          {
            OFFSET 0 0 0
          }
        }
      }
      JOINT ShoulderLeft
      {
        OFFSET -9.456665 -11.253902 10.983510
        CHANNELS 3 Zrotation Xrotation Yrotation
        JOINT ElbowLeft
        {
          OFFSET 22.769006 -18.060554 2.836642
          CHANNELS 3 Zrotation Xrotation Yrotation
          JOINT WristLeft
          {
            OFFSET -18.141269 -18.034874 -15.470716
            CHANNELS 3 Zrotation Xrotation Yrotation
            JOINT HandLeft
            {
              OFFSET -6.156727 -11.755343 -6.631434
              CHANNELS 3 Zrotation Xrotation Yrotation
              JOINT HandTipLeft
              {
                OFFSET -5.365808 -6.229029 0.240986
                CHANNELS 3 Zrotation Xrotation Yrotation
                End Site
                {
                  OFFSET 0 0 0
                }
              }
              JOINT ThumbLeft
              {
                OFFSET -5.190775 4.718941 0.180000
                CHANNELS 3 Zrotation Xrotation Yrotation
                End Site
                {
                  OFFSET 0 0 0
                }
              }
            }
          }
        }
      }
      JOINT ShoulderRight
      {
        OFFSET 6.833594 -5.286078 -11.506053
        CHANNELS 3 Zrotation Xrotation Yrotation
        JOINT ElbowRight
        {
          OFFSET -0.999547 -26.444537 -5.733580
          CHANNELS 3 Zrotation Xrotation Yrotation
          JOINT WristRight
          {
            OFFSET -3.364592 -20.964411 0.547868
            CHANNELS 3 Zrotation Xrotation Yrotation
            JOINT HandRight
            {
              OFFSET -1.647013 -6.795914 3.682086
              CHANNELS 3 Zrotation Xrotation Yrotation
              JOINT HandTipRight
              {
                OFFSET -1.535342 -8.262075 -2.218739
                CHANNELS 3 Zrotation Xrotation Yrotation
                End Site
                {
                  OFFSET 0 0 0
                }
              }
              JOINT ThumbRight
              {
                OFFSET -6.844719 4.077322 -0.031988
                CHANNELS 3 Zrotation Xrotation Yrotation
                End Site
                {
                  OFFSET 0 0 0
                }
              }
            }
          }
        }
      }
    }
  }
  JOINT HipLeft
  {
    OFFSET -4.376060 0.373496 -3.570370
    CHANNELS 3 Zrotation Xrotation Yrotation
    JOINT KneeLeft
    {
      OFFSET 16.696111 -33.599578 24.382009
      CHANNELS 3 Zrotation Xrotation Yrotation
      JOINT AnkleLeft
      {
        OFFSET 7.081744 -33.320355 1.954251
        CHANNELS 3 Zrotation Xrotation Yrotation
        JOINT FootLeft
        {
          OFFSET -3.752687 -1.157881 -16.777962
          CHANNELS 3 Zrotation Xrotation Yrotation
          End Site
          {
            OFFSET 0 0 0
          }
        }
      }
    }
  }
  JOINT HipRight
  {
    OFFSET 4.754189 1.735600 -4.225906
    CHANNELS 3 Zrotation Xrotation Yrotation
    JOINT KneeRight
    {
      OFFSET -1.980373 -36.801694 1.819292
      CHANNELS 3 Zrotation Xrotation Yrotation
      JOINT AnkleRight
      {
        OFFSET 10.381260 -31.982495 0.545725
        CHANNELS 3 Zrotation Xrotation Yrotation
        JOINT FootRight
        {
          OFFSET -8.787899 -4.474942 -9.314665
          CHANNELS 3 Zrotation Xrotation Yrotation
          End Site
          {
            OFFSET 0 0 0
          }
        }
      }
    }
  }
}
MOTION
Frames: 9
Frame Time: 0.033333
-11.513020 76.580315 309.708969 -0.000000 0.000000 4.106691 -0.000000 -0.000000 -4.106691 -0.000000 0.000000 0.000000 -0.000000 0.000000 0.000000 0.000000 0.000000 0.000000 -0.000000 0.000000 0.000000 -0.000000 0.000000 0.000000 -0.000000 0.000000 0.000000 -0.000000 0.000000 0.000000 0.000000 0.000000 0.000000 0.000000 0.000000 0.000000 -0.000000 0.000000 0.000000 -0.000000 0.000000 0.000000 -0.000000 0.000000 0.000000 -0.000000 0.000000 0.000000 0.000000 0.000000 0.000000 0.000000 0.000000 0.000000 -0.000000 -0.000000 -4.106691 -0.000000 0.000000 0.000000 -0.000000 0.000000 0.000000 0.000000 0.000000 0.000000 -0.000000 -0.000000 -4.106691 -0.000000 0.000000 0.000000 -0.000000 0.000000 0.000000 0.000000 0.000000 0.000000
-11.505787 76.484414 309.871456 -0.049066 -0.084841 4.342430 0.055349 0.080882 -4.342505 -0.000000 0.000000 0.000000 -0.000000 0.000000 0.000000 0.000000 0.000000 0.000000 -0.000000 0.000000 0.000000 -0.000000 0.000000 0.000000 -0.000000 0.000000 0.000000 2.526265 0.759961 -0.584915 0.000000 0.000000 0.000000 0.000000 0.000000 0.000000 -0.000000 0.000000 0.000000 -0.000000 0.000000 0.000000 -0.000000 0.000000 0.000000 -2.460007 -0.365228 0.718491 0.000000 0.000000 0.000000 0.000000 0.000000 0.000000 -0.311347 2.051424 -3.737852 0.864129 -3.404308 -0.859187 -0.391282 1.456146 0.291951 0.000000 0.000000 0.000000 0.055349 0.080882 -4.342505 -0.000000 0.000000 0.000000 -0.000000 0.000000 0.000000 0.000000 0.000000 0.000000
-11.504236 76.399947 310.018468 -0.099492 -0.157484 4.563218 0.111706 0.149070 -4.563500 -0.000000 0.000000 0.000000 -0.000000 0.000000 0.000000 0.000000 0.000000 0.000000 -0.000000 0.000000 0.000000 -0.000000 0.000000 0.000000 1.030047 -0.193487 -0.480729 3.696971 1.605461 -0.636086 0.000000 0.000000 0.000000 0.000000 0.000000 0.000000 -0.000000 0.000000 0.000000 -0.000000 0.000000 0.000000 -0.446805 1.011748 -0.485206 -4.015619 -1.725493 1.708302 0.000000 0.000000 0.000000 0.000000 0.000000 0.000000 -0.555096 3.760685 -3.438547 1.573858 -6.371108 -1.563844 -0.949075 3.373030 1.185523 0.000000 0.000000 0.000000 0.111706 0.149070 -4.563500 -0.000000 0.000000 0.000000 -0.000000 0.000000 0.000000 0.000000 0.000000 0.000000
-11.508366 76.326914 310.150005 -0.151299 -0.218013 4.768909 0.168902 0.204679 -4.769498 -0.000000 0.000000 0.000000 -0.750064 -0.597011 -0.107379 0.000000 0.000000 0.000000 -0.000000 0.000000 0.000000 -0.117353 -0.516425 0.621371 1.584416 0.293675 -1.356531 5.042575 2.109652 -0.813190 0.000000 0.000000 0.000000 0.000000 0.000000 0.000000 -0.000000 0.000000 0.000000 -0.000000 0.000000 0.000000 -0.573566 1.424120 -0.652390 -5.459580 -2.418452 2.253083 0.000000 0.000000 0.000000 0.000000 0.000000 0.000000 -0.729993 5.137103 -3.211925 2.146067 -8.876430 -2.130070 -1.331651 4.603879 1.665564 0.000000 0.000000 0.000000 0.168902 0.204679 -4.769498 -0.000000 0.000000 0.000000 -0.000000 0.000000 0.000000 0.000000 0.000000 0.000000
-11.518177 76.265314 310.266068 -0.204510 -0.266495 4.959359 0.226785 0.247816 -4.960325 -0.000000 0.000000 0.000000 -0.881373 -0.750022 -0.160005 0.000000 0.000000 0.000000 -0.000000 0.000000 0.000000 -0.149743 -0.641226 0.775321 1.996451 0.454358 -1.758107 5.926953 2.382569 -0.838333 0.000000 0.000000 0.000000 0.000000 0.000000 0.000000 -0.000000 0.000000 0.000000 -0.814469 -0.088656 -0.007678 0.176080 1.863688 -0.764100 -6.544852 -2.977685 2.623439 0.000000 0.000000 0.000000 0.000000 0.000000 0.000000 -0.835539 6.190019 -3.059911 2.593270 -10.900467 -2.570083 -1.636971 5.500205 2.056180 0.000000 0.000000 0.000000 0.226785 0.247816 -4.960325 -0.000000 0.000000 0.000000 -0.000000 0.000000 0.000000 0.000000 0.000000 0.000000
-11.533669 76.215148 310.366656 -0.259149 -0.302989 5.134433 0.285228 0.278578 -5.135811 -0.000000 0.000000 0.000000 -0.955617 -0.881556 -0.220563 0.000000 0.000000 0.000000 -0.000000 0.000000 0.000000 -0.179093 -0.742259 0.902697 2.347923 0.649110 -2.131812 6.279870 2.406056 -0.681002 0.000000 0.000000 0.000000 0.000000 0.000000 0.000000 -0.000000 0.000000 0.000000 -0.987590 -0.054422 -0.017520 0.345084 2.119668 -0.826630 -7.283273 -3.395209 2.837955 0.000000 0.000000 0.000000 0.000000 0.000000 0.000000 -0.871874 6.927509 -2.983494 2.924338 -12.427126 -2.893031 -1.854663 6.042622 2.348147 0.000000 0.000000 0.000000 0.965976 0.780873 -5.141014 -0.633025 -0.561220 -0.004191 -0.000000 0.000000 0.000000 0.000000 0.000000 0.000000
-11.563924 76.165481 310.454027 -0.328805 -0.322118 5.306390 0.357191 0.290323 -5.308219 -0.000000 0.000000 0.000000 -0.991641 -1.061199 -0.328863 0.000000 0.000000 0.000000 -0.000000 0.000000 0.000000 -0.204588 -0.831173 1.014572 2.921997 1.054886 -2.747366 5.555776 2.021690 -0.070507 0.000000 0.000000 0.000000 0.000000 0.000000 0.000000 -0.000000 0.000000 0.000000 -1.191540 0.038197 -0.036812 0.697485 1.834309 -0.681032 -8.412944 -2.661853 2.883548 0.000000 0.000000 0.000000 0.000000 0.000000 0.000000 -0.655489 7.069802 -3.005284 2.933829 -13.100993 -3.123220 -1.691569 5.190890 2.335747 0.000000 0.000000 0.000000 1.161807 0.821635 -5.311328 -0.752014 -0.603432 -0.008659 -0.000000 0.000000 0.000000 0.000000 0.000000 0.000000
-11.605944 76.158161 310.558505 -0.408891 -0.361320 5.479775 0.441533 0.320612 -5.482299 -0.000000 0.000000 0.000000 -1.010002 -1.154013 -0.385030 0.000000 0.000000 0.000000 -0.000000 0.000000 0.000000 -0.218002 -0.861388 1.056616 4.057369 1.425077 -3.658287 1.262827 -0.249438 2.445157 0.000000 0.000000 0.000000 0.000000 0.000000 0.000000 -0.000000 0.000000 0.000000 -1.300155 0.083987 -0.046421 1.057059 1.525676 -0.473259 -8.262803 -2.577730 2.650228 0.000000 0.000000 0.000000 0.000000 0.000000 0.000000 -0.511034 6.925644 -3.235272 2.996846 -12.973193 -3.066328 -1.544558 4.301576 2.141450 0.000000 0.000000 0.000000 1.301226 0.897622 -5.487192 -0.800622 -0.656472 -0.008834 -0.000000 0.000000 0.000000 0.000000 0.000000 0.000000
-11.638612 76.134709 310.626740 -0.473653 -0.362956 5.516628 0.506359 0.315727 -5.519524 -0.000000 0.000000 0.000000 -0.860710 -1.210928 -0.480910 0.000000 0.000000 0.000000 -0.000000 0.000000 0.000000 -0.240216 -0.878689 1.092962 4.074263 1.629773 -3.794847 -0.579215 -0.781456 2.689895 0.000000 0.000000 0.000000 0.000000 0.000000 0.000000 -0.000000 0.000000 0.000000 -1.417219 0.178329 -0.063330 1.214999 1.877383 -0.541218 -8.217794 -3.026772 2.652700 0.000000 0.000000 0.000000 0.000000 0.000000 0.000000 -0.381489 6.866259 -3.254568 3.016089 -13.004196 -3.090149 -1.791350 4.942140 2.346323 0.000000 0.000000 0.000000 1.379559 0.916431 -5.525503 -0.811351 -0.681887 -0.008238 -0.000000 0.000000 0.000000 0.000000 0.000000 0.000000
